<svg width="50" height="50" viewBox="0 0 50 50" fill="none" xmlns="http://www.w3.org/2000/svg">
<path d="M7.32508 42.6751C4.93732 40.3689 3.03277 37.6103 1.72254 34.5602C0.412316 31.5101 -0.27734 28.2296 -0.306185 24.9101C-0.33503 21.5906 0.297512 18.2986 1.55453 15.2262C2.81156 12.1538 4.66788 9.36252 7.0152 7.0152C9.36252 4.66788 12.1538 2.81156 15.2262 1.55453C18.2986 0.297512 21.5906 -0.33503 24.9101 -0.306185C28.2296 -0.27734 31.5101 0.412316 34.5602 1.72254C37.6103 3.03277 40.3689 4.93732 42.6751 7.32508C47.229 12.0401 49.7489 18.3552 49.6919 24.9101C49.635 31.465 47.0057 37.7353 42.3705 42.3705C37.7353 47.0057 31.465 49.635 24.9101 49.6919C18.3552 49.7489 12.0401 47.229 7.32508 42.6751ZM28.5001 25.0001L35.5751 17.9251L32.0501 14.4001L25.0001 21.4751L17.9251 14.4001L14.4001 17.9251L21.4751 25.0001L14.4001 32.0751L17.9251 35.6001L25.0001 28.5251L32.0751 35.6001L35.6001 32.0751L28.5251 25.0001H28.5001Z" fill="currentColor"/>
</svg>
